<svg width="500" height="500" viewBox="0 0 500 500" fill="none" xmlns="http://www.w3.org/2000/svg">
<rect width="500" height="500" rx="96" fill="#FFC902"/>
<path d="M183.355 355.485L183.355 421.714H151.186C136.372 421.714 124.4 409.748 124.391 394.98C124.363 353.882 124.338 294.758 124.38 263.427L183.355 355.485ZM151.26 77.8535H183.355V143.714L124.462 228.443C124.493 199.269 124.474 143.9 124.453 104.657C124.445 89.8552 136.439 77.8536 151.26 77.8535Z" stroke="black" stroke-width="35.707"/>
<path d="M265.604 220.982H210.004L310.797 77.8535H362.595L288.901 207.431C284.137 215.808 275.241 220.982 265.604 220.982Z" stroke="black" stroke-width="35.707"/>
<path d="M265.604 279.018H210.002L310.785 422.146H362.595L288.901 292.569C284.137 284.192 275.241 279.018 265.604 279.018Z" stroke="black" stroke-width="35.707"/>
</svg>
