<svg width="500" height="500" viewBox="0 0 500 500" fill="none" xmlns="http://www.w3.org/2000/svg">
<rect width="500" height="500" rx="96" fill="#121212"/>
<path d="M123.156 368.256V442.501H87.0908C70.4845 442.501 57.0638 429.087 57.0527 412.531C57.0221 366.457 56.9937 300.176 57.041 265.052L123.156 368.256ZM87.1748 57.0146H123.156L123.156 130.849L57.1328 225.833C57.1678 193.127 57.1467 131.056 57.123 87.0625C57.1143 70.4688 70.5603 57.0147 87.1748 57.0146Z" stroke="#FFC902" stroke-width="40.0295"/>
<path d="M215.361 217.47H153.03L266.025 57.0146H324.094L241.479 202.277C236.137 211.669 226.165 217.47 215.361 217.47Z" stroke="#FFC902" stroke-width="40.0295"/>
<path d="M215.361 282.53H153.028L266.012 442.985H324.094L241.479 297.723C236.137 288.331 226.165 282.53 215.361 282.53Z" stroke="#FFC902" stroke-width="40.0295"/>
</svg>
