<svg  viewBox="0 0 616 260" fill="none" xmlns="http://www.w3.org/2000/svg">
<path d="M55.7744 201.063L55.7744 245.681H34.1016C24.1221 245.681 16.0574 237.62 16.0508 227.671C16.0324 199.983 16.0146 160.154 16.043 139.046L55.7744 201.063ZM34.1523 14.0273L55.7744 14.0273L55.7744 58.3965L16.0986 115.477C16.1196 95.8219 16.107 58.5219 16.0928 32.085C16.0874 22.113 24.1679 14.0273 34.1523 14.0273Z" stroke="currentColor" stroke-width="24.0553"/>
<path d="M111.185 110.452H73.7275L141.63 14.0283H176.525L126.879 101.322C123.669 106.966 117.677 110.452 111.185 110.452Z" stroke="currentColor" stroke-width="24.0553"/>
<path d="M111.185 149.548H73.7256L141.622 245.972H176.525L126.879 158.678C123.669 153.034 117.677 149.548 111.185 149.548Z" stroke="currentColor" stroke-width="24.0553"/>
<path d="M242.021 259.499C231.078 259.499 223.02 256.44 217.847 250.322C212.673 244.154 210.087 235.101 210.087 223.163V126.987H235.605V222.118C235.605 224.307 235.729 226.421 235.978 228.461C236.226 230.45 236.798 232.092 237.694 233.385C238.589 234.678 240.032 235.325 242.021 235.325C244.061 235.325 245.528 234.703 246.423 233.46C247.319 232.166 247.866 230.5 248.065 228.461C248.314 226.421 248.438 224.307 248.438 222.118V126.987H273.956V223.163C273.956 235.101 271.369 244.154 266.196 250.322C261.023 256.44 252.964 259.499 242.021 259.499ZM280.972 258.306V126.987H307.236V235.922H334.246V258.306H280.972ZM335.069 258.306L347.754 126.987H392.297L404.758 258.306H379.912L378.046 237.116H362.228L360.587 258.306H335.069ZM364.094 216.149H376.032L370.287 149.371H369.093L364.094 216.149ZM417.967 258.306L403.865 126.987H429.532L436.77 209.882L444.156 126.987H468.629L475.643 209.882L482.657 126.987H508.622L494.296 258.306H462.81L456.244 195.109L449.976 258.306H417.967ZM512.206 258.306V126.987H537.575V258.306H512.206ZM544.964 258.306V126.987H570.93V179.589L583.166 126.987H609.579L594.88 187.125L612.638 258.306H585.404L571.079 194.736V258.306H544.964Z" fill="currentColor"/>
<path d="M210 106.695V1.64245H242.232C247.604 1.64245 251.663 2.87602 254.408 5.34318C257.154 7.77053 258.984 11.1927 259.9 15.6097C260.855 19.9869 261.332 25.1401 261.332 31.0692C261.332 36.7993 260.596 41.3755 259.124 44.7977C257.691 48.2199 254.965 50.5875 250.946 51.9007C254.249 52.5772 256.557 54.2286 257.87 56.8549C259.223 59.4414 259.9 62.8039 259.9 66.9424V106.695H239.187V65.5695C239.187 62.5055 238.551 60.6153 237.277 59.899C236.044 59.143 234.034 58.7649 231.249 58.7649V106.695H210ZM231.368 40.5598H236.442C239.347 40.5598 240.799 37.3962 240.799 31.0692C240.799 26.9705 240.481 24.2845 239.844 23.0112C239.207 21.7378 238.014 21.1011 236.263 21.1011H231.368V40.5598ZM263.066 106.695V87.5948L287.12 20.9817H265.393V1.64245H309.265V20.0267L284.792 87.356H308.25V106.695H263.066ZM326.219 106.695V72.1353L309.446 1.64245H330.278L336.127 37.2172L341.977 1.64245H362.749L346.036 72.1353V106.695H326.219ZM390.566 107.65C380.976 107.65 374.052 105.263 369.794 100.488C365.576 95.7125 363.467 88.1121 363.467 77.6864V67.4199H384.239V80.5515C384.239 82.9788 384.597 84.8889 385.314 86.2816C386.07 87.6346 387.363 88.3111 389.193 88.3111C391.103 88.3111 392.417 87.754 393.133 86.6398C393.889 85.5256 394.267 83.6951 394.267 81.1484C394.267 77.9252 393.949 75.2391 393.312 73.0903C392.675 70.9017 391.561 68.8325 389.969 66.8827C388.417 64.893 386.249 62.585 383.463 59.9587L374.032 51.0054C366.989 44.36 363.467 36.7596 363.467 28.2041C363.467 19.2507 365.537 12.4263 369.675 7.73074C373.853 3.0352 379.882 0.687423 387.761 0.687423C397.391 0.687423 404.215 3.25406 408.234 8.38732C412.293 13.5206 414.323 21.32 414.323 31.7855H392.954V24.5631C392.954 23.1305 392.536 22.0163 391.7 21.2205C390.905 20.4246 389.81 20.0267 388.417 20.0267C386.746 20.0267 385.513 20.5042 384.717 21.4592C383.961 22.3745 383.583 23.5683 383.583 25.0406C383.583 26.5129 383.981 28.1046 384.776 29.8157C385.572 31.5268 387.144 33.4965 389.492 35.7249L401.609 47.3643C404.036 49.6723 406.265 52.1196 408.294 54.7061C410.323 57.2528 411.955 60.2373 413.188 63.6595C414.422 67.0418 415.039 71.1803 415.039 76.0748C415.039 85.9434 413.208 93.6831 409.547 99.2939C405.926 104.865 399.599 107.65 390.566 107.65ZM416.892 106.695V87.5948L440.946 20.9817H419.219V1.64245H463.091V20.0267L438.618 87.356H462.076V106.695H416.892ZM476.344 106.695V21.8174H463.869V1.64245H509.83V21.8174H497.355V106.695H476.344ZM538.304 107.65C529.908 107.65 523.481 105.123 519.024 100.07C514.607 94.9763 512.399 87.6346 512.399 78.0445V28.1444C512.399 19.1513 514.588 12.3268 518.965 7.67105C523.382 3.0153 529.828 0.687423 538.304 0.687423C546.78 0.687423 553.206 3.0153 557.584 7.67105C562.001 12.3268 564.209 19.1513 564.209 28.1444V78.0445C564.209 87.6346 561.981 94.9763 557.524 100.07C553.107 105.123 546.7 107.65 538.304 107.65ZM538.483 88.3111C541.667 88.3111 543.258 85.2271 543.258 79.0592V27.7863C543.258 22.6132 541.706 20.0267 538.602 20.0267C535.101 20.0267 533.35 22.6729 533.35 27.9654V79.1786C533.35 82.4416 533.748 84.7894 534.544 86.2219C535.339 87.6147 536.653 88.3111 538.483 88.3111ZM570.24 106.695V1.64245H612.261V22.1158H591.37V38.8288H611.187V59.0634H591.37V106.695H570.24Z" fill="currentColor"/>
</svg>
